<?xml version="1.0" encoding="utf-8"?>
<!-- Generator: Adobe Illustrator 16.0.0, SVG Export Plug-In . SVG Version: 6.00 Build 0)  -->
<!DOCTYPE svg PUBLIC "-//W3C//DTD SVG 1.1//EN" "http://www.w3.org/Graphics/SVG/1.1/DTD/svg11.dtd">
<svg version="1.1" xmlns="http://www.w3.org/2000/svg" xmlns:xlink="http://www.w3.org/1999/xlink" x="0px" y="0px" width="22px"
	 height="20px" viewBox="0 0 22 20" enable-background="new 0 0 22 20" xml:space="preserve">
<g id="Used" display="none">
	<rect display="inline" fill="#BBD988" stroke="#CCCBCB" stroke-miterlimit="10" width="22" height="20"/>
	<rect display="inline" fill="#BBD988" stroke="#CCCBCB" stroke-miterlimit="10" width="22" height="20"/>
</g>
<g id="reserve" display="none">
	<rect display="inline" fill="#BBD988" stroke="#CCCBCB" stroke-miterlimit="10" width="22" height="20"/>
	<rect display="inline" fill="#8CCDD3" stroke="#CCCBCB" stroke-miterlimit="10" width="22" height="20"/>
</g>
<g id="block">
	<rect fill="#BBD988" stroke="#CCCBCB" stroke-miterlimit="10" width="22" height="20"/>
	<rect fill="#990000" stroke="#CCCBCB" stroke-miterlimit="10" width="22" height="20"/>
	<path fill="#FFFFFF" stroke="#FFFFFF" stroke-miterlimit="10" d="M12.082,9.112l2.184-2.182c0.143-0.145,0.143-0.377,0-0.521
		c-0.144-0.145-0.377-0.145-0.521,0l-2.182,2.184L9.52,6.552c-0.145-0.145-0.379-0.145-0.522,0c-0.144,0.143-0.144,0.377,0,0.52
		l2.043,2.041l-2.183,2.182c-0.145,0.144-0.145,0.377,0,0.521c0.071,0.072,0.166,0.108,0.262,0.108c0.094,0,0.188-0.037,0.26-0.108
		l2.184-2.182l2.264,2.264c0.072,0.073,0.168,0.109,0.262,0.109c0.095,0,0.189-0.036,0.26-0.109c0.146-0.143,0.146-0.377,0-0.521
		L12.082,9.112z"/>
</g>
</svg>
