<?xml version="1.0" encoding="utf-8"?>
<!-- Generator: Adobe Illustrator 16.0.0, SVG Export Plug-In . SVG Version: 6.00 Build 0)  -->
<!DOCTYPE svg PUBLIC "-//W3C//DTD SVG 1.1//EN" "http://www.w3.org/Graphics/SVG/1.1/DTD/svg11.dtd">
<svg version="1.1" xmlns="http://www.w3.org/2000/svg" xmlns:xlink="http://www.w3.org/1999/xlink" x="0px" y="0px" width="22px"
	 height="20px" viewBox="0 0 22 20" enable-background="new 0 0 22 20" xml:space="preserve">
<g id="Used">
	<rect fill="#BBD988" stroke="#CCCBCB" stroke-miterlimit="10" width="22" height="20"/>
	<rect fill="#BBD988" stroke="#CCCBCB" stroke-miterlimit="10" width="22" height="20"/>
</g>
<g id="reserve">
	<rect fill="#BBD988" stroke="#CCCBCB" stroke-miterlimit="10" width="22" height="20"/>
	<rect fill="#8CCDD3" stroke="#CCCBCB" stroke-miterlimit="10" width="22" height="20"/>
</g>
<g id="empthy">
	<rect fill="none" stroke="#CCCBCB" stroke-miterlimit="10" width="22" height="20"/>
	<rect fill="none" stroke="#CCCBCB" stroke-miterlimit="10" width="22" height="20"/>
</g>
<g id="close">
	<rect fill="none" stroke="#CCCBCB" stroke-miterlimit="10" width="22" height="20"/>
	<rect fill="#003F7A" stroke="#CCCBCB" stroke-miterlimit="10" width="22" height="20"/>
	<g>
		<g>
			<path fill="#FFFFFF" stroke="#FFFFFF" stroke-miterlimit="10" d="M11.212,16.004c-1.379,0-2.759-0.512-3.826-1.541
				C5.201,12.352,5.14,8.857,7.25,6.671c2.108-2.185,5.604-2.246,7.792-0.137c2.184,2.109,2.246,5.604,0.135,7.79
				C14.096,15.443,12.656,16.004,11.212,16.004z M11.213,5.662c-1.268,0-2.533,0.494-3.481,1.476
				c-1.852,1.92-1.798,4.989,0.121,6.84c1.92,1.854,4.989,1.799,6.84-0.121c1.854-1.918,1.799-4.987-0.119-6.84
				C13.637,6.112,12.424,5.662,11.213,5.662z"/>
		</g>
		<g>
			
				<rect x="6.011" y="10.195" transform="matrix(-0.7194 -0.6946 0.6946 -0.7194 11.9082 25.8729)" fill="#FFFFFF" stroke="#FFFFFF" stroke-miterlimit="10" width="10.34" height="0.671"/>
		</g>
	</g>
</g>
<g id="block" display="none">
	<rect display="inline" fill="#BBD988" stroke="#CCCBCB" stroke-miterlimit="10" width="22" height="20"/>
	<rect display="inline" fill="#990000" stroke="#CCCBCB" stroke-miterlimit="10" width="22" height="20"/>
	<path display="inline" fill="#FFFFFF" stroke="#FFFFFF" stroke-miterlimit="10" d="M11.77,10.27l2.183-2.182
		c0.143-0.145,0.143-0.377,0-0.521c-0.145-0.145-0.377-0.145-0.521,0L11.25,9.75L9.208,7.709c-0.145-0.145-0.379-0.145-0.522,0
		c-0.144,0.143-0.144,0.377,0,0.52l2.043,2.041l-2.183,2.181c-0.145,0.145-0.145,0.377,0,0.521c0.071,0.072,0.166,0.107,0.262,0.107
		c0.094,0,0.188-0.037,0.26-0.107l2.184-2.182l2.263,2.264c0.072,0.072,0.168,0.109,0.262,0.109s0.189-0.037,0.26-0.109
		c0.145-0.143,0.145-0.377,0-0.521L11.77,10.27z"/>
</g>
<g id="guide">
</g>
</svg>
