<?xml version="1.0" encoding="utf-8"?>
<!-- Generator: Adobe Illustrator 15.0.0, SVG Export Plug-In . SVG Version: 6.00 Build 0)  -->
<!DOCTYPE svg PUBLIC "-//W3C//DTD SVG 1.1//EN" "http://www.w3.org/Graphics/SVG/1.1/DTD/svg11.dtd">
<svg version="1.1" id="Layer_1" xmlns="http://www.w3.org/2000/svg" xmlns:xlink="http://www.w3.org/1999/xlink" x="0px" y="0px"
	 width="22px" height="20px" viewBox="0 0 22 20" enable-background="new 0 0 22 20" xml:space="preserve">
<g id="Used" display="none">
	<rect display="inline" fill="#BBD988" stroke="#CCCBCB" stroke-miterlimit="10" width="22" height="20"/>
	<rect display="inline" fill="#BBD988" stroke="#CCCBCB" stroke-miterlimit="10" width="22" height="20"/>
</g>
<g id="reserve" display="none">
	<rect display="inline" fill="#BBD988" stroke="#CCCBCB" stroke-miterlimit="10" width="22" height="20"/>
	<rect display="inline" fill="#8CCDD3" stroke="#CCCBCB" stroke-miterlimit="10" width="22" height="20"/>
</g>
<g id="reserve_copy">
	<rect fill="none" stroke="#CCCBCB" stroke-miterlimit="10" width="22" height="20"/>
	<rect fill="none" stroke="#CCCBCB" stroke-miterlimit="10" width="22" height="20"/>
</g>
<g id="block" display="none">
	<rect display="inline" fill="#BBD988" stroke="#CCCBCB" stroke-miterlimit="10" width="22" height="20"/>
	<rect display="inline" fill="#990000" stroke="#CCCBCB" stroke-miterlimit="10" width="22" height="20"/>
	<path display="inline" fill="#FFFFFF" stroke="#FFFFFF" stroke-miterlimit="10" d="M11.77,10.27l2.184-2.182
		c0.143-0.145,0.143-0.377,0-0.521c-0.145-0.145-0.377-0.145-0.521,0L11.25,9.75L9.208,7.709c-0.145-0.145-0.379-0.145-0.522,0
		c-0.144,0.143-0.144,0.377,0,0.52l2.043,2.041l-2.183,2.181c-0.145,0.145-0.145,0.377,0,0.521c0.071,0.071,0.166,0.106,0.262,0.106
		c0.094,0,0.188-0.037,0.26-0.106l2.184-2.183l2.264,2.265c0.071,0.071,0.168,0.108,0.262,0.108s0.188-0.037,0.26-0.108
		c0.145-0.144,0.145-0.377,0-0.521L11.77,10.27z"/>
</g>
<g id="Layer_4" display="none">
</g>
</svg>
