<?xml version="1.0" encoding="utf-8"?>
<!-- Generator: Adobe Illustrator 15.0.0, SVG Export Plug-In . SVG Version: 6.00 Build 0)  -->
<!DOCTYPE svg PUBLIC "-//W3C//DTD SVG 1.1//EN" "http://www.w3.org/Graphics/SVG/1.1/DTD/svg11.dtd">
<svg version="1.1" id="Layer_1" xmlns="http://www.w3.org/2000/svg" xmlns:xlink="http://www.w3.org/1999/xlink" x="0px" y="0px"
	 width="22px" height="20px" viewBox="0 0 22 20" enable-background="new 0 0 22 20" xml:space="preserve">
<g id="Used" display="none">
	<rect display="inline" fill="#BBD988" stroke="#CCCBCB" stroke-miterlimit="10" width="22" height="20"/>
	<rect display="inline" fill="#BBD988" stroke="#CCCBCB" stroke-miterlimit="10" width="22" height="20"/>
</g>
<g id="reserve" display="none">
	<rect display="inline" fill="#BBD988" stroke="#CCCBCB" stroke-miterlimit="10" width="22" height="20"/>
	<rect display="inline" fill="#8CCDD3" stroke="#CCCBCB" stroke-miterlimit="10" width="22" height="20"/>
</g>
<g id="reserve_copy">
	<rect fill="#B0B0B0" width="22" height="20"/>
	<rect fill="#B0B0B0" width="22" height="20"/>
</g>
<g id="block" display="none">
	<rect display="inline" fill="#BBD988" stroke="#CCCBCB" stroke-miterlimit="10" width="22" height="20"/>
	<rect display="inline" fill="#97bee7" stroke="#CCCBCB" stroke-miterlimit="10" width="22" height="20"/>
	<path display="inline" fill="#FFFFFF" stroke="#FFFFFF" stroke-miterlimit="10" d="M11.77,10.27l2.185-2.182
		c0.144-0.145,0.144-0.377,0-0.521c-0.146-0.145-0.377-0.145-0.521,0L11.25,9.75L9.208,7.709c-0.145-0.145-0.379-0.145-0.522,0
		c-0.144,0.143-0.144,0.377,0,0.52l2.043,2.041l-2.183,2.181c-0.145,0.145-0.145,0.377,0,0.521c0.071,0.07,0.166,0.105,0.262,0.105
		c0.094,0,0.188-0.037,0.26-0.105l2.184-2.184l2.264,2.266c0.071,0.07,0.168,0.107,0.262,0.107c0.095,0,0.188-0.037,0.261-0.107
		c0.146-0.145,0.146-0.377,0-0.521L11.77,10.27z"/>
</g>
<g id="Layer_4" display="none">
</g>
</svg>
